<svg xmlns="http://www.w3.org/2000/svg" viewBox="0 0 188.03 187.95">
<g id="Capa_2" data-name="Capa 2">
<style>
    @keyframes rotate {
        0%{
            transform: rotate(0deg);
        }
        20%{
            transform: rotate(20deg);
        }
        40%{
            transform: rotate(0deg)
        }
        60%{
            transform: rotate(20deg);
        }
        80%{
            transform: rotate(0deg)
        }
        100%{
            transform: rotate(20deg)
        }
    }

    @keyframes onda1 {
        0%{
            transform: translateX(14px);
            transform: translateY(14px)
        }
        100%{
            transform: translateX(0px);
            transform: translateY(0px);
        }
    }

    .telefono{
        animation: rotate 3s linear infinite;
        transform-origin: center;

    }
    .onda1{
        animation: onda1 0.7s linear infinite;
    }
    .onda2{
        animation: onda1 0.7s linear infinite;
    }
</style>
<g id="Capa_1-2" data-name="Capa 1">
<path class="telefono" d="M136.74,188c-22.83-.76-43.13-9.86-61.82-23-29.34-20.57-52.74-46.34-67-79.55C.85,69-3,51.85,2.84,33.94c4.85-15,15-25.36,28.8-32.09C40.48-2.46,52,1.11,58.13,8.91,63.26,15.45,68.41,22,73.52,28.54c6.59,8.46,6.23,21-.87,30.14-1.63,2.1-3.09,4.45-5.09,6.13-5.3,4.45-4.39,9-1.52,14.45,10.76,20.28,26.31,35.42,47.37,44.67,1.66.73,4.46.26,6.12-.7,3.14-1.82,5.87-4.37,8.7-6.69,11.35-9.3,22.7-9.17,33.83.22,5.08,4.28,10.35,8.36,15.68,12.35,10.09,7.55,13.44,20.34,7,30.93C174,177.7,158.63,188.13,136.74,188ZM16.06,49.41C15.87,64.64,20.14,76.67,26.31,88c15.8,29,38.44,51.64,66.29,69.11,11.9,7.47,24.75,13,38.82,14.82,16.21,2.09,28.82-4.13,38.22-17.44,3.37-4.77,3.29-9.45-1.27-13.12q-8.15-6.57-16.6-12.78c-5.25-3.85-8.66-3.69-14,.4-4.75,3.65-9.55,7.24-14.1,11.12a8,8,0,0,1-9.23,1.39c-5.74-2.62-11.56-5.1-17-8.21-23.56-13.41-40.1-33-50.37-58-1.8-4.39-1.35-8.31,1.84-12.05,3.88-4.55,7.49-9.34,11.2-14,2.94-3.72,3.11-7.55.25-11.37Q53.77,29,47.09,20.31c-4-5.26-8-6-13.23-2.13C22.81,26.47,15.35,36.81,16.06,49.41Z"/>
<path class="onda1" d="M112.94.22c33.31.42,66.19,27.67,72.92,60.61a111.79,111.79,0,0,1,1.88,15.82c.34,5.7-2.61,9.32-7.11,9.57-4.85.27-7.86-3-8.62-9-.7-5.42-1.15-11-2.76-16.14-8.38-26.75-27-41.38-54.58-44.89-1.81-.23-3.63-.47-5.44-.76-4.87-.77-7.53-3.65-7.27-7.82s3.48-7.07,8-7.43C110.94.15,111.94.22,112.94.22Z"/>
<path class="onda2" d="M113.69,31.19c24.12,2.33,41.68,22.36,42.92,46.23.24,4.65-3,8.47-7.06,8.79-4.49.36-7.54-2.27-8.56-7.21-.91-4.37-1.3-9-3.07-13-5.25-11.92-15.06-17.45-27.76-19a11.14,11.14,0,0,1-7.49-5.17c-1-1.93.16-6.36,1.92-7.86C106.79,32,110.58,32,113.69,31.19Z"/></g></g>
</svg>